<svg xmlns="http://www.w3.org/2000/svg" xmlns:xlink="http://www.w3.org/1999/xlink" width="4266.667" height="2666.667" xmlns:v="https://vecta.io/nano"><style><![CDATA[.B{fill:#ffb27d}.C{fill:#233862}.D{fill:#fff}.E{fill:#82b378}.F{fill:#2b478b}.G{fill:#ff9843}.H{fill:#ed7d2b}.I{fill:#efcbab}.J{fill:#dce9fb}.K{fill:#cee1f6}]]></style><path d="M0 2666.667h4266.656V.007H0z" class="D"/><path d="M367.486 2365.494S26.748 1847.255 399.655 1286.19c330.867-497.812 852.907-101.973 1148.714-608.518 403.386-690.785 2416.527-421.012 2161.568 641.785-123.373 514.319 559.959 533.012 305.773 1047.131l-3648.224-1.093" fill="#ebf3fa"/><g class="E"><path d="M2910.726 1329.91s-61.547-81.586 3.827-126.893c0 0 47.213-24.707 84.173-20.147 0 0-58.067 84.866-41.613 94.693 16.467 9.84 57.893-99.24 57.893-99.24s104.173-3.573 136.48 14.52c0 0-93.04 66.92-74.666 72.386 18.373 5.48 118.426-59.653 118.426-59.653s95.346 22.427 86.533 80.893c-8.8 58.467-43.147 74.546-57.64 72.066-14.507-2.467-97.84-40.387-100.44-28.547-2.613 11.84 46.333 54.133 82.213 58.2 0 0-72.626 70.693-116.426 46.253-43.813-24.453-45.52-58.973-72.866-73.586s-51.373-16.08-40.573-2.24 60.947 29.76 75.266 59.24 27.56 49.587-18.72 39.64-120.08-48.88-120.973-88.226l-.893-39.36"/><path d="M3234.325 1285.097s-261.119-26.427-323.599 44.813c0 0-15.173 37.493-56.68 69.906l-7.173 16.32s48.333-44.987 64.747-46.867c0 0-19.587-94.32 322.706-84.173"/><path d="M2854.046 1399.817s-58.773 38.04-67.32 112.04l10.147 1.547s22.733-75.653 57.04-103.64c34.307-28 .133-9.947.133-9.947"/></g><path d="M2608.767 1134.857s-136.466-76.426-72.786-180.146c0 0 50.947-63.68 105.533-80.053 0 0-29.107 154.653 0 158.293 29.12 3.64 20.013-174.666 20.013-174.666s143.746-69.146 200.159-63.693c0 0-89.16 151.026-60.053 147.386 29.12-3.64 129.2-156.48 129.2-156.48s147.386-27.293 171.04 60.04c23.653 87.346-14.56 131.013-36.4 136.466-21.827 5.467-161.933 3.64-158.306 21.84 3.653 18.2 98.266 47.307 151.026 30.933 0 0-58.227 143.746-134.64 136.466-76.426-7.28-100.08-54.587-147.386-58.227s-81.88 9.093-58.227 21.84c23.653 12.733 103.72 4.173 141.92 36.653 38.213 32.48 69.146 52.507-1.813 67.053-70.96 14.56-198.333 5.467-223.813-49.12l-25.467-54.587" fill="#a8d29f"/><g class="E"><path d="M3034.539 872.831s-382.106 123.733-425.772 262.026c0 0 1.813 61.867-36.4 132.826v27.293s40.04-92.8 61.867-105.533c0 0-85.52-120.093 400.306-316.613"/><path d="M2572.367 1267.684s-58.92 89.48-25.333 198.413l15.16-4.08s-14.707-119.973 16.12-180.32c30.827-60.333-5.947-14.013-5.947-14.013"/></g><path d="M1889.115 1174.017s158.813-67.213 101.586-188.586c0 0-48.107-75.96-105.946-100.52 0 0 13.16 173.013-19.187 173.48-32.347.453-.76-193.853-.76-193.853s-149.146-93.2-211.626-94.053c0 0 79.4 176.306 47.947 168.8-31.467-7.52-122.613-187.146-122.613-187.146s-158.2-47.773-194.706 45.08c-36.507 92.84.067 145.333 23.333 153.96s177.026 23.613 170.84 43.107c-6.2 19.493-113.413 39.933-169.253 15.6 0 0 46.387 164.573 131.013 165.866 84.626 1.28 116.28-47.693 168.573-45.947 52.28 1.747 88.626 19.893 61.16 30.987s-114.16-8-159.973 22.973c-45.813 30.96-82.133 49.147-6.133 73.706 76 24.547 216.679 30.013 251.213-26.72l34.533-56.733" fill="#a8d29f"/><g class="E"><path d="M1454.276 835.285s403.746 181.893 434.839 338.732c0 0-9.493 67.573 23.787 149.973l-3.32 29.907s-32.613-106.546-55-123.146c0 0 108.266-121.24-400.306-395.466"/><path d="M1912.902 1323.99s53.72 105.2 3.707 220.506l-16.12-6.307s30.667-129.693 4.2-199.56c-26.48-69.853 8.213-14.64 8.213-14.64m-349.533 240.067c-28.067-40.48-31.187-78.186-31.187-78.186s77.653-55.76 31.867-114.386c0 0-35.293-35.2-69.573-41.4 0 0 28.267 91.933 10.84 96.146-17.44 4.2-24.12-104.733-24.12-104.733s-92.04-32.16-125.92-24.973c0 0 64.48 85.626 46.56 85.4-17.933-.213-89.18-86.2-89.18-86.2s-91.385-6.493-99.776 48.173 17.808 78.573 31.443 80.4 98.606-8.867 97.646 2.427c-.973 11.307-56.444 35.453-89.613 29.12 0 0 45.201 83.333 91.12 73.68s57.053-40.013 85.533-45.453c28.48-5.453 50.36-.08 36.853 9.28-13.493 9.347-62.707 9.627-83.693 31.973-20.973 22.347-38.4 36.613 5.707 40.6 44.093 3.987 120.826-10.253 132.56-45.147l1.467-4.373c-.627 2.853-1.467 4.373-1.467 4.373 8.48 3.733 22.893 24.507 33.08 40.547 1.507 2.76 3.827 6.547 7.2 11.653h.013l3.293 5.573c19.48 36.293 18.827 102.853 18.827 102.853l9.493 1.427c12.947-68.453-28.973-118.773-28.973-118.773"/></g><path d="M1044.351 632.085c-.767-4.187-10.623-49.147-80.173-41.48 0 0 34.62-.88 42.672 13.227 0 0-25.855-15.12-43.863-6.44s-24.293 43.36-22.825 54.24c1.468 10.893 17.039 44.427 29.448 45.667 4.7.48 9.881-.587 14.508-2.08-2.464 5.427-4.791 11.373-6.887 17.933-19.388 60.693 17.132 111.96 39.623 102.453 14.423-6.107 22.379 18.867 22.379 18.867l128.55-139.066s-69.572-102.946-123.432-63.32" fill="#2c3a64"/><path d="M1211.82 2307.041l-31.265 11.64s-135.8-188.333-152.518-354.052c-2.987-29.587-1.991-58.24 4.467-84.72l-3.649-20.973-3.905-22.413-17.435-99.32-52.761-291.866 8.424-2.707 91.152-29.4 18.837-59.827 67.872-17.867s15.163 29.653 28.716 169.76a1059.6 1059.6 0 0 1 6.484 60.627c5.284 67.08 5.667 150.293-6.459 245.426-3.113 24.36-7.044 49.493-11.92 75.333-3.573 18.933-4.109 44.747-2.604 74.373 6.841 135.466 56.565 345.986 56.565 345.986" class="F"/><path d="M1176.237 1565.923l-147.384 293.013-3.905-22.413-17.435-99.32-52.761-291.866 8.424-2.707 91.152-29.4 18.837-59.827 67.872-17.867s15.163 29.653 28.716 169.76a1059.6 1059.6 0 0 1 6.484 60.627" class="C"/><path d="M1111.4 1373.137l-3.412-29.267c-57.161 15.187-209.887-42.427-209.887-42.427s-55.376 48.68-48.105 165.36c3.549 56.947 10.031 298.959 16.801 370.559l5.465 51.813.017.067c.269 2.253-.517 4.373-1.661 6.347-9.967 16.907-18.22 34.52-24.989 52.547-66.449 177.08 10.235 395.146 10.235 395.146l19.9-8.027s43.639-242.679 79.096-349.892c6.02-18.187 11.789-32.48 17.077-41.013 15.416-24.88 29.724-65.533 42.709-113.893 24.544-91.426 44.3-210.346 57.447-302.146 1.813.08 39.308-155.173 39.308-155.173" class="F"/><g class="B"><path d="M1203.565 1138.604l3.521 3.36c48.855 45.533 114.65 85.786 149.857 94.653 23.147 5.92 74.2-2.013 116.6-10.733 28.24-5.56 52.84-11.733 62.987-14.133 3.227-.76 5.04-1.333 5.04-1.333l-4.427-28.587s-25.413-2.013-56.987-5.573c-43.973-5.173-99.72-13.107-114-21.547-33.119-19.68-91.238-102.226-137.864-154.12l-7.265-8.213-5.252-5.747c-.357-.36-.801-.987-1.379-1.293l-5.727-5.667c-.068-.2-.372-.36-.671-.533-8.287-8.32-22.819-18.427-22.819-18.427-8.147-4.64-14.859-5.533-19.58-1.573 0 0-6.095 5.947-12.071 17.2a89.73 89.73 0 0 0-3.711 7.76c-.989 1.547-1.477 3.187-1.959 4.84-3.953 10.373-6.835 23.427-6.319 38.627.365 11.52 2.565 24.227 7.675 38.24 8.148 22.987 28.728 48.56 54.348 72.8"/><path d="M1161.025 1018.031c-16.564 10.813-37.196 19.533-62.935 24.72-96.48 19.44-130.932-62.613-143.16-118.613 13.283-7.107 25.628-8.413 32.757-9.067 6.951-.613 14.252-.96 20.295-1.08 10.996-7.947 27.987-41.24 33.009-93.52l4.476 1.333 74.962 22.813s-4.137 23.907-6.473 46.56c-1.812 17.72-2.496 34.693.751 38.947l9.373 2.373.036.067c.968 1.693 21.868 38.36 36.908 85.466"/></g><path d="M1194.61 1078.297l-1.581 6.147c-16.936 56.627-30.636 282.986-30.636 282.986 8.975 28.293-155.517 34.093-246.231 21.013-32.985-4.733-56.212-11.973-57.808-21.533-16.231-36.587 23.488-104.92 46.424-139.653 2.884-4.36 5.355-8.947 7.395-13.707 5.185-11.947 7.687-24.96 7.164-38.08-.691-17.947-2.224-35.373-4.096-51.693-3.513-30.787-8.208-57.667-10.661-76.693v-.013l13.745-13.333c6.596-6.453 12.38-12.427 16.447-18.227 4.464-6.32 6.949-12.493 6.396-18.96-.429-4.893-1.304-9.853-2.531-14.747-.568-2.32-1.212-4.613-1.903-6.92-7.364-24.133-20.925-45.013-20.925-45.013 24.561-14.36 71.876-14.8 71.876-14.8l.92 6.813c2.301 16.96 8.775 60.467 15.403 67.906 8.284 9.293 139.101 36.187 143.658 21.307 4.48-14.627-22.537-76.186-23.549-78.52l-.031-.08c41.897 9.96 60.093 21.213 60.921 21.88l-.047-.013c-22.736 19.907 21.587 69.68 9.651 123.933" class="G"/><path d="M1120.435 844.618s-4.151 23.907-6.472 46.573c-42.68-5.493-61.395-46.8-68.497-69.373l74.969 22.8" fill="#ed985f"/><path d="M1132.579 867.525s-101.433-8.467-95.186-71.546c6.245-63.093-2.639-106.666 62.387-103.933 65.025 2.747 75.205 28.053 78.242 49.627 3.036 21.56-18.897 126.426-45.443 125.853" class="B"/><path d="M1178.521 706.298c-13.753-20.547-25.999-17.56-33.197-12.52-52.304-35.973-92.473 5.44-92.473 5.44-11.305 44.587-46.54 67.24-46.54 67.24s17.316 13.253 60.963 6.573c13.332-2.04 25.861-10.12 36.847-20.333-20.109 27.133-45.631 45.587-45.631 45.587 53.179-18.4 80.666-87.053 83.448-94.32 5.627 6.173 16.604 19.453 19.136 31.64 3.44 16.56 2.399 49.867 12.149 49.707 0 0 25.925-48.213 5.299-79.013" fill="#2c3a64"/><path d="M1631.076 1178.057c-10.147 9.667-20.413 33.827-51.653 33.373-22.28-.187-44.853 2.32-55.773 3.667-4.253.733-6.733 1.04-6.733 1.04l-1.107-35.4s.453.053 1.467-.12c7.547-1.133 45.867-7.027 61.04-17.093 17.04-11.413 56.853-.827 56.853-.827s6.12 5.88-4.093 15.36" class="B"/><path d="M971.556 2359.534h-157.47s-3.773-24 4.452-42.2c7.88-17.48 20.225-25.413 17.269-46.56 10.005 10.307 26.315 21.84 49.08 18.787 2.789 4.52 18.005 28.72 27.323 35.413 10.291 7.387 56.177 4.76 59.347 34.56m338.108 0h-157.47s-5.887-25.12 4.451-42.2c9.152-15.133 5.645-23.747-1.133-36.253 7.133 2.92 16.363 5.573 26.523 5 7.845-.453 16.141-4.013 23.417-8.24 6.777 7.72 35.799 40.613 44.867 47.133 10.291 7.387 56.177 4.76 59.347 34.56" class="C"/><path d="M1108.387 831.045s1.42 8.347 21.972 8.373c0 0 17.255.013 17.297-9.067 0 0-16.261-7.48-39.269.693" class="D"/><path d="M937.655 1232.017c-6.229 39.453-34.764 118.613-21.493 156.426-32.985-4.733-56.212-11.973-57.808-21.533-16.231-36.587 23.488-104.92 46.424-139.653 2.884-4.36 5.355-8.947 7.395-13.707 5.185-11.947 7.687-24.96 7.164-38.08-.691-17.947-2.224-35.373-4.096-51.693 0 0 29.041 66.307 22.415 108.24" class="H"/><path d="M1160.553 965.818c1.096 35.067 26.457 131.333 32.473 118.626 6.875-14.493 33.503-69.586 46.009-71.613-.659-2.547-51.844-59.133-54.083-58.48 0 0-13.905 4.24-24.4 11.467" class="G"/><path d="M919.099 1463.256l-26.124 17.387-17.076-21.467-4.803-6.373c-8.283-10.667-17.908-23.76-28.435-37.947l-.177-.173c-17.643-24.773-37.02-52.96-51.851-78.44-10.305-18.053-18.329-34.787-22.249-47.933-.432-1.307-.668-2.467-.936-3.96-7.668-33.347 6.396-99.546 28.781-164.146l9.429-26.307c11.908-31.68 25.289-61.44 38.731-85.506 7.88-14.467 15.736-27.08 23.305-36.493 2.624-3.36 5.091-6.547 7.759-9.253l4.307-4.72c15.692 1.333 48.615 7.547 73.048 35.773l-1.295 4.48c-9.88 31.867-25.137 70.973-40.951 109.293l-25.113 61.6-13.303 33.28c-7.519 19.813-13.1 36.293-15.319 47.84-1.501 7.493.639 21.6 4.684 38.933 6.936 30.2 20.139 70.88 32.407 105.426l14.088 38.947 11.092 29.76" class="B"/><path d="M930.52 1093.431c-26.093-39.387-100.882-56.333-100.882-56.333 42.201-133.906 152.997-121.493 152.997-121.493l-52.115 177.826" class="G"/><g class="B"><path d="M892.975 1480.643s6.863 10.133 7.629 17.413c.768 7.293 7.288 31.453 15.725 39.133 8.439 7.667 27.615 23.013 30.3 20.707s10.453-20.387 3.252-33.173c-3.251-5.773-7.663-21.867-13.48-25.76-7.06-4.733-17.303-35.707-17.303-35.707l-26.124 17.387"/><path d="M919.206 1467.19s20.776 10.547 23.588 18.987 14.421 25.453 13.232 27.427c-1.273 2.107-19.335-9.413-25.472-19.893s-11.348-26.52-11.348-26.52"/></g><path d="M1413.583 1369.057l760.798-455.466c41.947-25.12 94.32-25.12 136.28 0l760.798 455.466v742.345l-1657.876-83.12v-659.225" class="H"/><path d="M2928.753 2226.228H1556.289V1040.151h1372.463v1186.077" fill="#fcecdb"/><g class="I"><use xlink:href="#B"/><use xlink:href="#B" x="1259.61"/><path d="M2871.899 1093.431h-1259.61v-3.067h1259.61v3.067"/><path d="M1610.756 2345.894v-1259.61h3.067v1259.61h-3.067m1260.103 0v-1259.61h3.067v1259.61h-3.067"/></g><path d="M3071.459 1367.017v992.518H1413.583v-992.518l828.931 496.265 828.945-496.265" class="G"/><path d="M1413.583 2359.534l759.345-544.399c41.6-29.827 97.573-29.827 139.173 0l759.358 544.399H1413.583" class="H"/><path d="M2495.58 1204.47h-500.399c-7.267 0-13.213-5.947-13.213-13.213s5.947-13.213 13.213-13.213h500.399c7.267 0 13.213 5.947 13.213 13.213s-5.947 13.213-13.213 13.213m128.893 53h-758.185c-7.267 0-13.213-5.947-13.213-13.213s5.947-13.213 13.213-13.213h758.185c7.267 0 13.213 5.947 13.213 13.213s-5.947 13.213-13.213 13.213m-98.319 164.413h-548.572a9.59 9.59 0 0 1-9.56-9.56 9.59 9.59 0 0 1 9.56-9.56h548.572c5.253 0 9.56 4.307 9.56 9.56s-4.307 9.56-9.56 9.56m-493.492 49.92h-154.68c-5.253 0-9.56-4.307-9.56-9.56s4.307-9.56 9.56-9.56h154.68c5.253 0 9.56 4.307 9.56 9.56s-4.307 9.56-9.56 9.56m233.279 0h-186.88c-5.253 0-9.547-4.307-9.547-9.56s4.293-9.56 9.547-9.56h186.88c5.253 0 9.56 4.307 9.56 9.56s-4.307 9.56-9.56 9.56m359.799 0h-323.053c-5.253 0-9.56-4.307-9.56-9.56s4.307-9.56 9.56-9.56h323.053c5.253 0 9.56 4.307 9.56 9.56s-4.307 9.56-9.56 9.56m-358.572 58.04h-300.479c-5.253 0-9.547-4.293-9.547-9.56 0-5.253 4.293-9.56 9.547-9.56h300.479c5.253 0 9.56 4.307 9.56 9.56a9.59 9.59 0 0 1-9.56 9.56m269.866 0h-236.666c-5.253 0-9.547-4.293-9.547-9.56 0-5.253 4.293-9.56 9.547-9.56h236.666c5.253 0 9.56 4.307 9.56 9.56a9.59 9.59 0 0 1-9.56 9.56" class="I"/><path d="M2275.008 1719.802c-2.96-5.547 1.28-12.387 6.12-16.907-1.893 5.68-3.947 11.32-6.12 16.907zm-8.933-81.306c-.067-2.827 1.427-7.973 4.667-7.92-1.467 3.173-2.973 6.32-4.56 9.427-.053-.507-.093-1.013-.107-1.507zm85.506 9.373c-18.08 15-37.413 27.507-57.787 38.92 1.72-5.4 3.16-11 2.893-16-.36-6.88-5.853-9.893-11.347-12.747-1.36-.707-2.627-1.453-3.893-2.2 2.133-2.093 3.227-4.987 1.827-8.16-2.32-5.2-8.827-4.36-11.027.453-.413.893-.653 1.76-.747 2.613-.893-.467-1.56-.973-2.147-1.693 3.347-6.253 6.507-12.613 9.413-19.12.653-1.467-.173-3.2-1.36-4.08-4.827-3.64-11.413-2.467-15.293 2.107-4.6 5.427-3.44 13.68-1.24 19.84.16.44.333.867.507 1.293-4.267 7.693-8.907 15.187-13.88 22.467l-1.4-1.4c-1.293-1.253-2.68-2.88-3.88-4.667 2.28-5.933 3.733-12.16 4.28-18.653.24-2.893-2.653-4.32-5.067-3.427-6.693 2.48-10.307 9.28-9.44 16.28.307 2.4 1.08 4.693 2.187 6.813a62.5 62.5 0 0 1-5.36 9.413c-1.36 1.96-.387 3.96 1.2 4.893-2.187 7.293-5.147 14.773-10.187 20.04-4.12 4.293-11.8 7.56-16.813 2.453-3.173-3.227-3.573-8.627-4.013-12.893-1.067-10.52-1.853-21.44-1.48-32.027.187-5.013.72-10.107 2.44-14.84 1.067-2.947 2.547-7.413 3.987-2.333.693 2.48-.267 6.347-.52 8.88-.453 4.52 6.56 5.04 7.013.533.533-5.293 2.907-16.427-3.093-19.747-4.973-2.76-9.547 1.2-11.853 5.333-8.28 14.867-4.987 35.307-3.733 51.467.987 12.893 5.813 28.72 22.28 24.613 15.493-3.853 21.187-23.387 24.747-36.827.227-.84.16-1.6-.107-2.253l.187-.333 1.947 1.933c.907.8 1.787 1.667 2.627 2.547l-4.987 6.707c-.96 1.253-.68 3.133.28 4.293 5.213 6.267 14.587 1.613 14.4-6.093-.04-1.787-.48-3.373-1.173-4.827 4.893-7.04 9.467-14.293 13.707-21.733 2.213 2.16 5.013 3.547 8.453 3.387.227-.013.467-.04.707-.067 1.8 1.907 4.067 3.493 6.133 4.653 2 1.133 4.307 1.827 6.107 3.293 3.333 2.733 2.347 5.853 1.613 9.733-.973 5.107-2.6 10.213-4.093 15.187-7.08 4.067-14.067 9.24-16.453 17.387-2.173 7.44-.24 15.267 6.133 19.88 1.92 1.4 4.467.28 5.293-1.747 4-9.827 7.6-19.813 10.707-29.96a27.3 27.3 0 0 1 .307-.973c6.253-3.56 12.8-6.693 18.973-10.347 16.427-9.72 32-20.8 46.667-32.987 3.493-2.893-1.16-8.187-4.64-5.28" fill="#f99746"/><path d="M2020.968 830.125l-71.466-157.68 154.413 27.213c1.693.307 3.4.453 5.08.453 10.2 0 19.827-5.347 25.147-14.333l78.746-132.72 71.466 157.68-263.386 119.386" class="J"/><path d="M2108.995 700.112c-1.68 0-3.387-.147-5.08-.453l-154.413-27.213 263.386-119.386-78.746 132.72c-5.32 8.987-14.947 14.333-25.147 14.333" class="K"/><path d="M533.629 1746.296l-37.596-100.826 94.582 23.467c1.455.36 2.924.533 4.379.533 5.883 0 11.517-2.867 14.963-7.853l54.484-78.946 37.595 100.826-168.406 62.8" class="J"/><path d="M594.995 1669.469c-1.455 0-2.924-.173-4.379-.533l-94.582-23.467 168.408-62.8-54.484 78.946c-3.445 4.987-9.08 7.853-14.963 7.853" class="K"/><path d="M3495.578 1180.564l-330.679-88.24 52.827-197.973 120.946 140.733c6.707 7.8 16.36 12.053 26.267 12.053 3.96 0 7.973-.68 11.84-2.093l171.64-62.453-52.84 197.973" class="J"/><path d="M3364.938 1047.137c-9.907 0-19.56-4.253-26.267-12.053l-120.946-140.733 330.693 88.24-171.64 62.453c-3.867 1.413-7.88 2.093-11.84 2.093" class="K"/><path d="M692.176 1875.522c-.793 0-1.465-.613-1.528-1.413-.065-.853.568-1.587 1.412-1.653l23.213-1.48c.849-.067 1.56.627 1.596 1.467.036.853-.621 1.56-1.468 1.6-.087 0-8.911.373-23.105 1.467zm-45.943 4.533c-.765 0-1.428-.56-1.521-1.347-.103-.84.497-1.6 1.339-1.707l22.973-2.52c.837-.067 1.595.533 1.677 1.373s-.533 1.6-1.376 1.68l-22.907 2.52zm-45.665 6.64c-.735 0-1.383-.52-1.511-1.267-.144-.84.416-1.627 1.252-1.773l22.829-3.613c.851-.133 1.617.467 1.739 1.293.121.84-.46 1.627-1.297 1.747l-22.749 3.6zm-45.191 9.32c-.689 0-1.317-.467-1.489-1.173a1.54 1.54 0 0 1 1.125-1.853 603.87 603.87 0 0 1 22.575-5.067c.832-.16 1.641.373 1.811 1.2a1.54 1.54 0 0 1-1.195 1.813c-7.771 1.587-15.327 3.28-22.459 5.04-.124.027-.247.04-.368.04zm1018.045 2.787a1.53 1.53 0 0 1-1.507-1.24c-.16-.84.387-1.64 1.213-1.8l2.627-.493a1.57 1.57 0 0 1 1.88 1.493c0 1.267-.147 1.293-3.933 2.013zm-45.493 8.533a1.54 1.54 0 0 1-1.507-1.253 1.55 1.55 0 0 1 1.227-1.787l22.733-4.227c.827-.16 1.627.387 1.787 1.227.16.827-.387 1.627-1.227 1.787l-22.733 4.227zm-1016.689 1.987a1.52 1.52 0 0 1-1.437-1 1.54 1.54 0 0 1 .903-1.973c6.796-2.533 14.189-4.987 21.971-7.32a1.54 1.54 0 0 1 1.909 1.04 1.53 1.53 0 0 1-1.031 1.907c-7.717 2.307-15.044 4.747-21.779 7.253-.176.067-.357.093-.536.093zm971.276 6.32a1.53 1.53 0 0 1-1.507-1.267c-.16-.827.4-1.627 1.227-1.787l22.707-4.12c.84-.16 1.64.4 1.787 1.227.147.84-.4 1.64-1.227 1.787l-22.72 4.133zm-45.413 8.12a1.53 1.53 0 0 1-1.507-1.267 1.52 1.52 0 0 1 1.24-1.773l22.707-4.04c.827-.16 1.627.4 1.773 1.24.147.827-.4 1.627-1.24 1.773l-22.707 4.04zm-966.983 6.107c-.484 0-.961-.24-1.26-.667-.484-.693-.315-1.64.381-2.133 5.795-4.04 12.564-7.96 20.119-11.64.76-.373 1.68-.067 2.052.707a1.52 1.52 0 0 1-.707 2.04c-7.412 3.627-14.043 7.453-19.709 11.413a1.53 1.53 0 0 1-.876.28zm921.556 1.853a1.54 1.54 0 0 1-1.507-1.28c-.147-.827.413-1.627 1.253-1.773l22.707-3.96a1.54 1.54 0 0 1 1.773 1.253 1.54 1.54 0 0 1-1.24 1.773l-22.72 3.96zm-45.427 7.787c-.733 0-1.387-.52-1.507-1.28-.147-.827.413-1.613 1.253-1.76l22.72-3.88c.827-.147 1.627.413 1.76 1.253a1.53 1.53 0 0 1-1.253 1.773l-22.72 3.88zm-45.455 7.64c-.737 0-1.388-.533-1.512-1.28-.14-.84.427-1.627 1.261-1.773l22.728-3.787c.847-.147 1.627.413 1.767 1.253a1.54 1.54 0 0 1-1.259 1.773l-22.732 3.787zm-45.479 7.453c-.737 0-1.389-.533-1.512-1.28a1.53 1.53 0 0 1 1.269-1.76l22.739-3.707c.835-.147 1.625.427 1.763 1.253a1.55 1.55 0 0 1-1.267 1.773l-22.744 3.707zm-45.5 7.293a1.53 1.53 0 0 1-1.515-1.293 1.54 1.54 0 0 1 1.277-1.76l22.749-3.613a1.53 1.53 0 0 1 1.757 1.267c.134.84-.435 1.627-1.272 1.76l-22.756 3.627zm-766.659 3.6l-.304-.027c-.831-.173-1.368-.973-1.201-1.8 1.475-7.32 4.933-14.373 10.281-20.96a1.54 1.54 0 0 1 2.159-.227 1.54 1.54 0 0 1 .224 2.16c-5.032 6.2-8.281 12.8-9.656 19.627-.147.733-.787 1.227-1.503 1.227zm721.13 3.493c-.743 0-1.397-.533-1.513-1.293-.129-.84.445-1.627 1.283-1.747l22.764-3.533c.836-.12 1.621.44 1.753 1.28a1.54 1.54 0 0 1-1.28 1.76l-22.771 3.52zm-45.555 6.907c-.748 0-1.403-.547-1.516-1.307-.125-.84.453-1.627 1.291-1.747l22.777-3.427a1.54 1.54 0 0 1 1.747 1.293c.127.84-.449 1.613-1.285 1.747l-22.787 3.413zm-45.589 6.667a1.53 1.53 0 0 1-1.516-1.307 1.55 1.55 0 0 1 1.3-1.747l22.793-3.307c.837-.133 1.617.453 1.74 1.307a1.53 1.53 0 0 1-1.296 1.733l-22.8 3.307zm-45.621 6.453a1.54 1.54 0 0 1-1.519-1.333 1.52 1.52 0 0 1 1.309-1.72l22.812-3.187a1.52 1.52 0 0 1 1.733 1.293c.117.84-.465 1.627-1.305 1.733l-22.819 3.2zm-45.721 6.187c-.757 0-1.417-.573-1.519-1.333a1.54 1.54 0 0 1 1.32-1.733l22.839-3.053c.852-.107 1.612.48 1.725 1.32s-.475 1.613-1.313 1.72l-22.849 3.053zm-45.588 5.853c-.761 0-1.423-.56-1.52-1.333-.105-.84.491-1.613 1.332-1.72l22.772-2.893c.836-.093 1.609.493 1.717 1.333s-.485 1.613-1.325 1.72l-22.783 2.893zm-45.74 5.56c-.767 0-1.429-.587-1.521-1.36-.099-.84.504-1.6 1.345-1.707l22.868-2.72a1.531 1.531 0 1 1 .369 3.04l-22.88 2.733zm-433.422.347a1.52 1.52 0 0 1-.903-.293c-4.444-3.24-7.652-6.893-9.536-10.88-1.376-2.92-2.524-5.84-3.411-8.68a1.53 1.53 0 0 1 1.009-1.92c.804-.253 1.669.2 1.92 1.013.844 2.707 1.94 5.493 3.256 8.267 1.661 3.52 4.544 6.787 8.569 9.72a1.54 1.54 0 0 1 .336 2.147c-.3.413-.767.627-1.241.627zm387.635 4.813a1.54 1.54 0 0 1-1.523-1.373 1.54 1.54 0 0 1 1.361-1.693l22.891-2.533c.843-.08 1.603.52 1.697 1.36a1.53 1.53 0 0 1-1.353 1.693l-22.905 2.533zm-45.836 4.693c-.78 0-1.448-.587-1.524-1.373a1.53 1.53 0 0 1 1.377-1.68l22.917-2.293c.837-.067 1.596.52 1.683 1.373.087.84-.527 1.587-1.369 1.68l-22.935 2.293zm-45.892 4.173a1.54 1.54 0 0 1-1.528-1.413 1.53 1.53 0 0 1 1.4-1.653l22.943-2.013a1.54 1.54 0 0 1 1.668 1.4 1.54 1.54 0 0 1-1.389 1.667l-22.964 2zm-252.807 1.413l-.272-.027c-8.467-1.52-16.057-3.333-22.56-5.4a1.53 1.53 0 0 1-.997-1.92c.256-.813 1.12-1.267 1.927-1 6.376 2.027 13.836 3.813 22.172 5.307a1.53 1.53 0 0 1 1.24 1.773c-.135.747-.78 1.267-1.509 1.267zm206.855 2.08a1.53 1.53 0 0 1-1.529-1.427 1.54 1.54 0 0 1 1.428-1.64l22.971-1.653a1.54 1.54 0 0 1 1.647 1.413c.064.84-.569 1.587-1.413 1.653l-22.997 1.653zm-46.013 2.64c-.815 0-1.495-.64-1.532-1.453a1.54 1.54 0 0 1 1.461-1.613l22.996-1.2c.845-.013 1.572.6 1.621 1.453a1.53 1.53 0 0 1-1.444 1.613l-23.031 1.2zm-115.118.347h-.095c-8.115-.493-15.855-1.12-23.005-1.88-.843-.093-1.452-.853-1.363-1.693s.848-1.453 1.688-1.36c7.104.76 14.797 1.387 22.865 1.867.845.053 1.489.787 1.439 1.627-.048.813-.724 1.44-1.529 1.44zm69.046 1.16a1.534 1.534 0 1 1-.025-3.067l23.017-.587c.883-.067 1.556.64 1.584 1.48a1.53 1.53 0 0 1-1.484 1.587l-23.065.587zm-23.044.173h-.004l-23.049-.333c-.848-.027-1.515-.733-1.492-1.587a1.51 1.51 0 0 1 1.576-1.48l22.973.333c.847 0 1.533.68 1.531 1.533-.003.84-.689 1.533-1.535 1.533m1032.827-48.838l189-107.106-172.413 10.187 13.307 29.12-35.613 39.453 5.72 28.347" fill="#afcdfb"/><g class="D"><path d="M1813.702 1872.509l-198.053 36.293-144.253 100.186z"/><path d="M1641.289 1882.695l172.413-10.187-180.346-52.853z"/></g><path d="M2647.007 572.352l214.559 33.96-141.2-99.44-7.733 31.067-52.44 8.667-13.187 25.747" fill="#afcdfb"/><g class="D"><path d="M2861.566 606.312l-177.52-95-175.253-11.493z"/><path d="M2720.367 506.872l141.2 99.44-108.133-153.693z"/></g><path d="M3296.725 1441.683s-43.76 3.04-76.053 81.826c-32.573 79.466 40.28 78.68 15.747 129.306-24.547 50.627 35.32 80.826 53.507 122.28 18.173 41.44 109.786 141.44 117.04 187.04s88.706-47.413 88.706-47.413 82.8-88.32 53.12-139.626c-48.933-84.573-6.547-102.946-8.08-150.186-1.533-47.227-91.186-233.333-243.986-183.226" class="C"/><path d="M3272.965 1724.336s-169.373 73.826-201.546 72.413c-32.173-1.4-230.426-60.387-230.426-60.387l5.053 34.107s153 88 206.479 92.986c52.667 4.92 232.733-47.267 250.119-58.28s20.84-69.693-29.68-80.84" fill="#ffad76"/><path d="M3259.299 1805.269c15.573 10.8 35.08 19.707 59.587 25.36 91.853 21.227 127.053-56.4 140.266-109.693-12.52-7.173-24.307-8.747-31.107-9.56-6.64-.787-13.627-1.307-19.413-1.587-10.307-7.907-25.68-40.24-29.08-90.44l-4.32 1.16-72.386 19.813s3.32 23.013 4.947 44.76c1.253 17.027 3.467 26.907.24 30.88-5.653 1.227-11.053 8.413-11.053 8.413l-.04.067c-.973 1.6-21.973 36.133-37.64 80.826" class="B"/><path d="M3302.845 1640.336s3.32 23 4.933 44.76c41.013-4.107 60.053-43.147 67.453-64.573l-72.386 19.813" fill="#ed985f"/><path d="M3290.592 1661.936s97.346-5.373 93.066-65.933c-4.28-60.573 5.413-102.053-56.92-101.186s-72.76 24.827-76.253 45.4c-3.493 20.56 14.68 121.56 40.107 121.72" class="B"/><path d="M3486.885 2003.188c8.787-44.933 37.453-224.479 8.787-282.253-10.293-20.76-50.68-22.627-95-20.813-13.787 8.907-66.347 42.547-87.92 38.347-.24-.04-.653-.133-1.213-.28-10.16-2.547-11.987-16.067-3.507-22.227.013-.013-23.96 4.267-51.227 9.4-15.387 2.907-56.92 24.387-56.92 24.387s20.907 37.787 51.747 50.827c-5.24 46.907 2.56 67.6 51.213 175.933 41.12 91.573-5.547 174.026-5.547 174.026s242.053 194.6 243.399 95.52c1.013-74.6-65.053-185.426-53.813-242.866" fill="#739af0"/><path d="M3285.298 2362.147c-13.16-1.493-25.013-8.693-32.373-19.707l-3.747-5.64c-27.547-41.707-38.267-169.44-100.24-305.519-15.093-33.133-69.28-39.093-84.053-76.546 0 0-36.373-121.386 69.6-124.96 105.973-3.587 283.813 337.746 286.613 373.546 2.72 34.68 70.066 182.053-135.8 158.826" class="C"/><path d="M2864.113 2359.347h150.826s5.64-24.053-4.267-40.427c-8.76-14.48-5.4-22.733 1.093-34.72-6.827 2.8-15.667 5.347-25.4 4.787-7.52-.427-15.467-3.84-22.44-7.893-6.493 7.413-34.28 38.907-42.973 45.147-9.853 7.093-53.8 4.56-56.84 33.107" fill="#172b4c"/><path d="M3470.978 1767.989s19.64 178.613-107.68 216.026c-127.306 37.427-163.453-164.32-60.653-178.84 102.786-14.507 168.333-37.187 168.333-37.187" fill="#5486d6"/><path d="M3061.432 1864.855c-9.08 68.093-44.547 282.999-107.106 387.852-20.173 33.8 50.813 52.747 51.2 52.653 9.52-2.493 25.387-17.667 32.693-24.267 50.8-45.773 153.906-175.386 153.906-279.306 0-50.68.88-147.453-35.96-172.04-22.693-15.147-91.12 8.067-94.733 35.107" class="C"/><path d="M3375.245 2359.347s-5.6-7.773-15.347-22.547c-11.587-17.573-24.427-52.147-40-96.466-16.36-46.52-35.773-103.76-60.027-163.32-7.48-18.387-15.427-36.987-23.88-55.573-15.107-33.12-56.627-28.547-71.4-66 0 0-57.653-129.826 48.32-133.413s307.333 347.306 318.906 381.292c12.667 37.2 74.48 191.68-156.573 156.026" class="F"/><path d="M2974.833 2359.347h150.826s5.64-24.053-4.267-40.427c-8.76-14.48-5.4-22.733 1.093-34.72-6.84 2.8-15.667 5.347-25.4 4.787-7.52-.427-15.467-3.84-22.44-7.893-6.493 7.413-34.28 38.907-42.973 45.147-9.853 7.093-53.8 4.56-56.84 33.107" class="C"/><path d="M3319.898 2240.334c-16.36-46.52-35.773-103.76-60.027-163.32 6.333-45.12 20-84.6 42.973-100.506 0 0 55.747 172.666 17.053 263.826" fill="#23407a"/><path d="M3149.485 1860.042c-9.093 68.08-21.88 287.813-84.44 392.666-20.173 33.8 50.813 52.747 51.2 52.653 9.52-2.493 25.387-17.667 32.693-24.267 50.787-45.773 153.906-175.386 153.906-279.306 0-50.68-59.467-143.386-96.32-167.973-22.693-15.147-53.44-.827-57.04 26.227" class="F"/><path d="M2962.726 1681.469s-7.72-19.627-21.773-18.36c-14.067 1.28-141.786 18.36-141.786 18.36s14.867 3.56 20.48 13.307l58.907 173.613h151.12l-66.946-186.92" fill="#ebf3fa"/><g fill="#ffbf94"><path d="M3459.151 1720.936s-214.066 78.84-246.239 77.226c-20.787-1.053-193.6-61.8-193.6-61.8l-15.52 29.347s168.2 108.12 214.439 107.573c91.306-1.053 245.346-57.093 262.733-68.106 17.373-11.013 28.72-73.093-21.813-84.24"/><path d="M3019.312 1736.362s-15.52-23.867-30.96-24.573c-15.453-.707-42.133 10.533-51.267 12.293-9.12 1.747-35.107 10.173-27.373 22.813 7.72 12.64 43.533 15.453 58.973 12.64 15.453-2.813 35.107 6.173 35.107 6.173l15.52-29.347"/><path d="M2992.553 1712.522s-24.56-11.267-31.587-13.373-5.613.04-3.507 6.693 14.747 13 14.747 15.093 20.347-8.413 20.347-8.413"/></g><path d="M3272.378 1627.109s9.2-3.64 35.093-1.547c0 0-1.373 10.107-20.48 11.107-10.813.56-14.613-9.56-14.613-9.56" class="D"/><path d="M3348.858 1759.816s19.147 60.613 84.906 74.4c0 0 108.586-33.453 54.52-107.426 0 0-53.453-39.72-139.426 33.027" fill="#739af0"/><path d="M2799.166 1681.469s-14.187 5.427-3.453 23.84l138.08-18.413s-4.8-21.347 6.04-23.667l-140.666 18.24" class="D"/><path d="M2848.646 1726.789c3.267-13.133 3.067-16.307-4.347-24.32-4.907-5.293-12.413 7.84-16.293 15.76-1.427-3.493-3.853-9.187-4.68-9.467-1.187-.413 1.653 17.64 1.653 17.64v-.013c-.067.747-.093 1.507-.08 2.267l-.013-.013s-5.987 26.533 20.12 40.867l-4.987-14.627c3.027-.493 5.293-14.773 8.627-28.093" fill="#ffad76"/><g class="C"><path d="M3286.898 1508.203s20.52-7.2 30.467 13.773c9.933 20.96 13.093 71.08 52.933 75.173s41.373-84.893 41.373-84.893l-99.72-39.373-52.653 33.24 27.6 2.08"/><path d="M3286.898 1508.203s-22.467.48-27.6 19.4 2.88 54.2-9.56 56.76-23.747-58.813.32-78.746c24.053-19.947 36.84 2.587 36.84 2.587"/></g><path d="M1523.223 1179.684s22.493-8.52 25.053-14.4 9.973-8.44 18.92-12.533 14.32-11.507 15.6-10.48c1.28 1.013 1.533 6.133-2.053 9.973-3.573 3.827-18.733 30.68-24.453 33.747s-33.067-6.307-33.067-6.307" class="B"/><g class="E"><path d="M3856.964 2358.267h-144.573c-7.747-6.573 5.373-21.507 19.067-22.507 5.947-.453 13.467.8 22.067 2.613 1.987-26.427 13.347-145.213 56.16-140.44 48.147 5.347 0 52.32-13.6 80.12-10.093 20.6-20.72 50.133-25.587 64.067 3.907.853 7.96 1.68 12.093 2.44 6.387-19.587 30.12-85.493 60.32-81.653 35.453 4.493 21.2 30.92-3.933 46.6-18.427 11.533-41.067 27.933-51.827 35.853 9.12 1.48 18.627 2.493 28.28 2.267 24.76-.587 36.853 6.707 41.533 10.64m-3239.963 2.934s-54.952-150.92-93.534-138.053 93.534 138.053 93.534 138.053m-21.045 0c-4.677 0-92.366-91-98.212-67.173s98.212 67.173 98.212 67.173"/><path d="M689.49 2361.201s-36.265-33.253-82.181-24.6c-45.916 8.667-65.527 18.147-94.366 11.587s-43.573 13.013-43.573 13.013H689.49"/></g><path d="M4069.043 2369.761H220.774c-2.404 0-4.369-1.96-4.369-4.36v-1.493a4.39 4.39 0 0 1 4.369-4.373h3848.269c2.4 0 4.373 1.973 4.373 4.373v1.493c0 2.4-1.973 4.36-4.373 4.36" fill="#2e3552"/><path d="M1808.395 2300.948h-285.639c-15.96 0-28.893-12.933-28.893-28.893v-77.893c0-15.947 12.933-28.88 28.893-28.88h285.639c15.96 0 28.88 12.933 28.88 28.88v77.893c0 15.96-12.92 28.893-28.88 28.893" fill="#fcecdb"/><path d="M1750.289 2199.001H1535.13c-2.413 0-4.373-1.96-4.373-4.36s1.96-4.373 4.373-4.373h215.159c2.4 0 4.373 1.973 4.373 4.373s-1.973 4.36-4.373 4.36m-177 18.853h-38.16c-2.413 0-4.373-1.973-4.373-4.373s1.96-4.373 4.373-4.373h38.16c2.4 0 4.36 1.973 4.36 4.373s-1.96 4.373-4.36 4.373m120.213 0h-105.133c-2.4 0-4.373-1.973-4.373-4.373s1.973-4.373 4.373-4.373h105.133c2.4 0 4.36 1.973 4.36 4.373s-1.96 4.373-4.36 4.373m56.787 34.894H1535.13c-2.413 0-4.373-1.973-4.373-4.373s1.96-4.373 4.373-4.373h215.159c2.4 0 4.373 1.973 4.373 4.373s-1.973 4.373-4.373 4.373m-137.066 18.84h-78.093c-2.413 0-4.373-1.973-4.373-4.373s1.96-4.373 4.373-4.373h78.093c2.4 0 4.36 1.973 4.36 4.373s-1.96 4.373-4.36 4.373m95.013 0h-78.093c-2.4 0-4.36-1.973-4.36-4.373s1.96-4.373 4.36-4.373h78.093c2.413 0 4.373 1.973 4.373 4.373s-1.96 4.373-4.373 4.373" class="I"/><defs ><path id="B" d="M1598.183 1091.897c0-7.8 6.32-14.107 14.107-14.107a14.11 14.11 0 0 1 14.12 14.107c0 7.787-6.32 14.107-14.12 14.107-7.787 0-14.107-6.32-14.107-14.107"/></defs></svg>